<mxfile host="app.diagrams.net" modified="2024-07-23T08:41:51.701Z" agent="Mozilla/5.0 (Windows NT 10.0; Win64; x64) AppleWebKit/537.36 (KHTML, like Gecko) Chrome/126.0.0.0 Safari/537.36" etag="yl1-usDm-cUf5dxzAWD9" version="24.7.3" type="device">
  <diagram name="Page-1" id="uwsMht-Vq7ebA_hRZLx6">
    <mxGraphModel dx="880" dy="434" grid="1" gridSize="10" guides="1" tooltips="1" connect="1" arrows="1" fold="1" page="1" pageScale="1" pageWidth="850" pageHeight="1100" math="0" shadow="0">
      <root>
        <mxCell id="0" />
        <mxCell id="1" parent="0" />
        <mxCell id="7XP40_LdoLIauDxHSzUc-2" value="m.&amp;nbsp;" style="html=1;dashed=0;whiteSpace=wrap;shape=mxgraph.dfd.dataStoreID;align=left;spacingLeft=3;points=[[0,0],[0.5,0],[1,0],[0,0.5],[1,0.5],[0,1],[0.5,1],[1,1]];" vertex="1" parent="1">
          <mxGeometry x="100" y="120" width="130" height="30" as="geometry" />
        </mxCell>
        <mxCell id="7XP40_LdoLIauDxHSzUc-16" style="edgeStyle=orthogonalEdgeStyle;rounded=0;orthogonalLoop=1;jettySize=auto;html=1;" edge="1" parent="1">
          <mxGeometry relative="1" as="geometry">
            <mxPoint x="330" y="135" as="targetPoint" />
            <mxPoint x="240" y="135" as="sourcePoint" />
          </mxGeometry>
        </mxCell>
        <mxCell id="7XP40_LdoLIauDxHSzUc-25" style="edgeStyle=orthogonalEdgeStyle;rounded=0;orthogonalLoop=1;jettySize=auto;html=1;entryX=0;entryY=0.25;entryDx=0;entryDy=0;" edge="1" parent="1" source="7XP40_LdoLIauDxHSzUc-3" target="7XP40_LdoLIauDxHSzUc-20">
          <mxGeometry relative="1" as="geometry">
            <Array as="points">
              <mxPoint x="190" y="218" />
            </Array>
          </mxGeometry>
        </mxCell>
        <mxCell id="7XP40_LdoLIauDxHSzUc-3" value="Danh sách hỗ trợ" style="text;html=1;align=center;verticalAlign=middle;whiteSpace=wrap;rounded=0;" vertex="1" parent="1">
          <mxGeometry x="140" y="120" width="90" height="30" as="geometry" />
        </mxCell>
        <mxCell id="7XP40_LdoLIauDxHSzUc-4" value="h." style="html=1;dashed=0;whiteSpace=wrap;shape=mxgraph.dfd.dataStoreID;align=left;spacingLeft=3;points=[[0,0],[0.5,0],[1,0],[0,0.5],[1,0.5],[0,1],[0.5,1],[1,1]];" vertex="1" parent="1">
          <mxGeometry x="520" y="200" width="150" height="30" as="geometry" />
        </mxCell>
        <mxCell id="7XP40_LdoLIauDxHSzUc-5" value="Danh sách hoá đơn chi phí bảo trì" style="text;html=1;align=center;verticalAlign=middle;whiteSpace=wrap;rounded=0;" vertex="1" parent="1">
          <mxGeometry x="550" y="200" width="120" height="30" as="geometry" />
        </mxCell>
        <mxCell id="7XP40_LdoLIauDxHSzUc-6" value="i." style="html=1;dashed=0;whiteSpace=wrap;shape=mxgraph.dfd.dataStoreID;align=left;spacingLeft=3;points=[[0,0],[0.5,0],[1,0],[0,0.5],[1,0.5],[0,1],[0.5,1],[1,1]];" vertex="1" parent="1">
          <mxGeometry x="520" y="120" width="150" height="30" as="geometry" />
        </mxCell>
        <mxCell id="7XP40_LdoLIauDxHSzUc-7" value="Báo cáo bảo trì" style="text;html=1;align=center;verticalAlign=middle;whiteSpace=wrap;rounded=0;" vertex="1" parent="1">
          <mxGeometry x="550" y="120" width="120" height="30" as="geometry" />
        </mxCell>
        <mxCell id="7XP40_LdoLIauDxHSzUc-29" style="edgeStyle=orthogonalEdgeStyle;rounded=0;orthogonalLoop=1;jettySize=auto;html=1;entryX=1;entryY=0.5;entryDx=0;entryDy=0;" edge="1" parent="1" source="7XP40_LdoLIauDxHSzUc-8" target="7XP40_LdoLIauDxHSzUc-26">
          <mxGeometry relative="1" as="geometry">
            <Array as="points">
              <mxPoint x="380" y="40" />
            </Array>
          </mxGeometry>
        </mxCell>
        <mxCell id="7XP40_LdoLIauDxHSzUc-8" value="4.1" style="swimlane;fontStyle=0;childLayout=stackLayout;horizontal=1;startSize=20;fillColor=#ffffff;horizontalStack=0;resizeParent=1;resizeParentMax=0;resizeLast=0;collapsible=0;marginBottom=0;swimlaneFillColor=#ffffff;rounded=1;glass=0;arcSize=50;" vertex="1" parent="1">
          <mxGeometry x="335" y="110" width="90" height="50" as="geometry" />
        </mxCell>
        <mxCell id="7XP40_LdoLIauDxHSzUc-10" value="Lập báo cáo bảo trì" style="text;html=1;align=center;verticalAlign=middle;whiteSpace=wrap;rounded=0;" vertex="1" parent="7XP40_LdoLIauDxHSzUc-8">
          <mxGeometry y="20" width="90" height="30" as="geometry" />
        </mxCell>
        <mxCell id="7XP40_LdoLIauDxHSzUc-19" value="4.2" style="swimlane;fontStyle=0;childLayout=stackLayout;horizontal=1;startSize=20;fillColor=#ffffff;horizontalStack=0;resizeParent=1;resizeParentMax=0;resizeLast=0;collapsible=0;marginBottom=0;swimlaneFillColor=#ffffff;rounded=1;glass=0;arcSize=50;" vertex="1" parent="1">
          <mxGeometry x="335" y="190" width="90" height="50" as="geometry" />
        </mxCell>
        <mxCell id="7XP40_LdoLIauDxHSzUc-20" value="Lập hoá đơn chi phí bảo trì" style="text;html=1;align=center;verticalAlign=middle;whiteSpace=wrap;rounded=0;" vertex="1" parent="7XP40_LdoLIauDxHSzUc-19">
          <mxGeometry y="20" width="90" height="30" as="geometry" />
        </mxCell>
        <mxCell id="7XP40_LdoLIauDxHSzUc-22" style="edgeStyle=orthogonalEdgeStyle;rounded=0;orthogonalLoop=1;jettySize=auto;html=1;entryX=0;entryY=0.5;entryDx=0;entryDy=0;" edge="1" parent="1" source="7XP40_LdoLIauDxHSzUc-10" target="7XP40_LdoLIauDxHSzUc-6">
          <mxGeometry relative="1" as="geometry">
            <Array as="points">
              <mxPoint x="450" y="135" />
              <mxPoint x="450" y="135" />
            </Array>
          </mxGeometry>
        </mxCell>
        <mxCell id="7XP40_LdoLIauDxHSzUc-23" style="edgeStyle=orthogonalEdgeStyle;rounded=0;orthogonalLoop=1;jettySize=auto;html=1;" edge="1" parent="1" source="7XP40_LdoLIauDxHSzUc-20" target="7XP40_LdoLIauDxHSzUc-4">
          <mxGeometry relative="1" as="geometry">
            <Array as="points">
              <mxPoint x="450" y="215" />
              <mxPoint x="450" y="215" />
            </Array>
          </mxGeometry>
        </mxCell>
        <mxCell id="7XP40_LdoLIauDxHSzUc-26" value="Khách hàng" style="rounded=0;whiteSpace=wrap;html=1;" vertex="1" parent="1">
          <mxGeometry x="110" y="10" width="120" height="60" as="geometry" />
        </mxCell>
        <mxCell id="7XP40_LdoLIauDxHSzUc-28" style="edgeStyle=orthogonalEdgeStyle;rounded=0;orthogonalLoop=1;jettySize=auto;html=1;entryX=0.333;entryY=0.067;entryDx=0;entryDy=0;entryPerimeter=0;" edge="1" parent="1" source="7XP40_LdoLIauDxHSzUc-26" target="7XP40_LdoLIauDxHSzUc-3">
          <mxGeometry relative="1" as="geometry" />
        </mxCell>
        <mxCell id="7XP40_LdoLIauDxHSzUc-30" value="&lt;font style=&quot;font-size: 9px;&quot;&gt;Biên bản bảo trì&lt;/font&gt;" style="text;html=1;align=center;verticalAlign=middle;whiteSpace=wrap;rounded=0;" vertex="1" parent="1">
          <mxGeometry x="260" y="10" width="120" height="30" as="geometry" />
        </mxCell>
      </root>
    </mxGraphModel>
  </diagram>
</mxfile>
